<?xml version="1.0" encoding="utf-8"?>
<svg version="1.1" xmlns:xlink="http://www.w3.org/1999/xlink" width="15px" height="15px" viewBox="28 112.5  15 15" xmlns="http://www.w3.org/2000/svg">
  <path d="M 35.5 112.5  C 39.7 112.5  43 115.8  43 120  C 43 124.2  39.7 127.5  35.5 127.5  C 31.3 127.5  28 124.2  28 120  C 28 115.8  31.3 112.5  35.5 112.5  Z " fill-rule="nonzero" fill="#ffffff" stroke="none" />
  <path d="M 35.5 113  C 39.42 113  42.5 116.08  42.5 120  C 42.5 123.92  39.42 127  35.5 127  C 31.58 127  28.5 123.92  28.5 120  C 28.5 116.08  31.58 113  35.5 113  Z " stroke-width="1" stroke="#409eff" fill="none" />
  <path d="M 35.5 123.75  C 33.4 123.75  31.75 122.1  31.75 120  C 31.75 117.9  33.4 116.25  35.5 116.25  C 37.6 116.25  39.25 117.9  39.25 120  C 39.25 122.1  37.6 123.75  35.5 123.75  " fill-rule="nonzero" fill="#409eff" stroke="none" />
</svg>