<?xml version="1.0" encoding="utf-8"?>
<svg version="1.1" xmlns:xlink="http://www.w3.org/1999/xlink" width="15px" height="15px" viewBox="28 152.5  15 15" xmlns="http://www.w3.org/2000/svg">
  <path d="M 35.5 152.5  C 39.7 152.5  43 155.8  43 160  C 43 164.2  39.7 167.5  35.5 167.5  C 31.3 167.5  28 164.2  28 160  C 28 155.8  31.3 152.5  35.5 152.5  Z " fill-rule="nonzero" fill="#f2f2f2" stroke="none" />
  <path d="M 35.5 153  C 39.42 153  42.5 156.08  42.5 160  C 42.5 163.92  39.42 167  35.5 167  C 31.58 167  28.5 163.92  28.5 160  C 28.5 156.08  31.58 153  35.5 153  Z " stroke-width="1" stroke="#cccccc" fill="none" />
  <path d="M 35.5 163.75  C 33.4 163.75  31.75 162.1  31.75 160  C 31.75 157.9  33.4 156.25  35.5 156.25  C 37.6 156.25  39.25 157.9  39.25 160  C 39.25 162.1  37.6 163.75  35.5 163.75  " fill-rule="nonzero" fill="#cccccc" stroke="none" />
</svg>