<?xml version="1.0" encoding="utf-8"?>
<svg version="1.1" xmlns:xlink="http://www.w3.org/1999/xlink" width="15px" height="15px" viewBox="100 82.5  15 15" xmlns="http://www.w3.org/2000/svg">
  <path d="M 107.5 82.5  C 111.7 82.5  115 85.8  115 90  C 115 94.2  111.7 97.5  107.5 97.5  C 103.3 97.5  100 94.2  100 90  C 100 85.8  103.3 82.5  107.5 82.5  Z " fill-rule="nonzero" fill="#ffffff" stroke="none" />
  <path d="M 107.5 83  C 111.42 83  114.5 86.08  114.5 90  C 114.5 93.92  111.42 97  107.5 97  C 103.58 97  100.5 93.92  100.5 90  C 100.5 86.08  103.58 83  107.5 83  Z " stroke-width="1" stroke="#409eff" fill="none" />
  <path d="M 107.5 93.75  C 105.4 93.75  103.75 92.1  103.75 90  C 103.75 87.9  105.4 86.25  107.5 86.25  C 109.6 86.25  111.25 87.9  111.25 90  C 111.25 92.1  109.6 93.75  107.5 93.75  " fill-rule="nonzero" fill="#409eff" stroke="none" />
</svg>