<?xml version="1.0" encoding="utf-8"?>
<svg version="1.1" xmlns:xlink="http://www.w3.org/1999/xlink" width="15px" height="15px" viewBox="200 82.5  15 15" xmlns="http://www.w3.org/2000/svg">
  <path d="M 207.5 82.5  C 211.7 82.5  215 85.8  215 90  C 215 94.2  211.7 97.5  207.5 97.5  C 203.3 97.5  200 94.2  200 90  C 200 85.8  203.3 82.5  207.5 82.5  Z " fill-rule="nonzero" fill="#ffffff" stroke="none" />
  <path d="M 207.5 83  C 211.42 83  214.5 86.08  214.5 90  C 214.5 93.92  211.42 97  207.5 97  C 203.58 97  200.5 93.92  200.5 90  C 200.5 86.08  203.58 83  207.5 83  Z " stroke-width="1" stroke="#409eff" fill="none" />
  <path d="M 207.5 93.75  C 205.4 93.75  203.75 92.1  203.75 90  C 203.75 87.9  205.4 86.25  207.5 86.25  C 209.6 86.25  211.25 87.9  211.25 90  C 211.25 92.1  209.6 93.75  207.5 93.75  " fill-rule="nonzero" fill="#409eff" stroke="none" />
</svg>