<?xml version="1.0" encoding="utf-8"?>
<svg version="1.1" xmlns:xlink="http://www.w3.org/1999/xlink" width="80px" height="30px" xmlns="http://www.w3.org/2000/svg">
  <g transform="matrix(1 0 0 1 -260 -205 )">
    <path d="M 260.5 210  A 4.5 4.5 0 0 1 265 205.5 L 335 205.5  A 4.5 4.5 0 0 1 339.5 210 L 339.5 230  A 4.5 4.5 0 0 1 335 234.5 L 265 234.5  A 4.5 4.5 0 0 1 260.5 230 L 260.5 210  Z " fill-rule="nonzero" fill="#f0f7ff" stroke="none" />
    <path d="M 260.5 210  A 4.5 4.5 0 0 1 265 205.5 L 335 205.5  A 4.5 4.5 0 0 1 339.5 210 L 339.5 230  A 4.5 4.5 0 0 1 335 234.5 L 265 234.5  A 4.5 4.5 0 0 1 260.5 230 L 260.5 210  Z " stroke-width="1" stroke="#409eff" fill="none" />
  </g>
</svg>